<svg width="28" height="28" viewBox="0 0 28 28" fill="none" xmlns="http://www.w3.org/2000/svg">
<path d="M16.6566 3.71289C15.2548 3.71289 13.9103 4.26962 12.919 5.26058C11.9278 6.25155 11.3709 7.59559 11.3709 8.99704V11.939H8.5423C8.40029 11.939 8.28516 12.0541 8.28516 12.1961V16.0806C8.28516 16.2227 8.40029 16.3377 8.5423 16.3377H11.3709V24.3068C11.3709 24.4488 11.486 24.5638 11.628 24.5638H15.5137C15.6558 24.5638 15.7709 24.4488 15.7709 24.3068V16.3377H18.6245C18.7425 16.3377 18.8454 16.2574 18.874 16.143L19.8454 12.2585C19.886 12.0962 19.7632 11.939 19.5959 11.939H15.7709V8.99704C15.7709 8.7622 15.8642 8.53698 16.0303 8.37092C16.1964 8.20487 16.4217 8.11158 16.6566 8.11158H19.628C19.7701 8.11158 19.8852 7.99649 19.8852 7.85452V3.96996C19.8852 3.82799 19.7701 3.71289 19.628 3.71289H16.6566Z" fill="white"/>
</svg>
