<svg width="28" height="28" viewBox="0 0 28 28" fill="none" xmlns="http://www.w3.org/2000/svg">
<path d="M13.9975 10.4248C11.9462 10.4248 10.2832 12.0873 10.2832 14.138C10.2832 16.1887 11.9462 17.8512 13.9975 17.8512C16.0488 17.8512 17.7118 16.1887 17.7118 14.138C17.7118 12.0873 16.0488 10.4248 13.9975 10.4248Z" fill="white"/>
<path fill-rule="evenodd" clip-rule="evenodd" d="M8.01975 3.94839C11.9605 3.50809 16.0344 3.50809 19.9751 3.94839C22.1447 4.1908 23.8947 5.89976 24.1493 8.07631C24.6205 12.1037 24.6205 16.1722 24.1493 20.1996C23.8947 22.3762 22.1447 24.0852 19.9751 24.3275C16.0344 24.7678 11.9605 24.7678 8.01975 24.3275C5.85015 24.0852 4.10022 22.3762 3.84557 20.1996C3.37439 16.1722 3.37439 12.1037 3.84557 8.07631C4.10022 5.89976 5.85015 4.1908 8.01975 3.94839ZM19.7117 7.28286C19.0805 7.28286 18.5689 7.79439 18.5689 8.42538C18.5689 9.05637 19.0805 9.5679 19.7117 9.5679C20.3429 9.5679 20.8546 9.05637 20.8546 8.42538C20.8546 7.79439 20.3429 7.28286 19.7117 7.28286ZM8.56885 14.138C8.56885 11.1407 10.9993 8.71101 13.9974 8.71101C16.9956 8.71101 19.426 11.1407 19.426 14.138C19.426 17.1353 16.9956 19.5649 13.9974 19.5649C10.9993 19.5649 8.56885 17.1353 8.56885 14.138Z" fill="white"/>
</svg>
