<svg width="28" height="28" viewBox="0 0 28 28" fill="none" xmlns="http://www.w3.org/2000/svg">
<g clip-path="url(#clip0_1_226)">
<path d="M17.3146 9.59672C16.4387 9.59371 15.5707 9.76341 14.7605 10.0961C13.9502 10.4288 13.2135 10.9179 12.5925 11.5355C11.9716 12.1531 11.4785 12.8871 11.1415 13.6954C10.8046 14.5037 10.6304 15.3705 10.6289 16.2462V22.9642C10.6289 23.2369 10.7373 23.4984 10.9302 23.6913C11.1231 23.8841 11.3847 23.9924 11.6575 23.9924H14.0575C14.3303 23.9924 14.5919 23.8841 14.7848 23.6913C14.9777 23.4984 15.086 23.2369 15.086 22.9642V16.2462C15.0858 15.9347 15.1513 15.6267 15.2781 15.3423C15.4049 15.0578 15.5903 14.8032 15.8221 14.5952C16.054 14.3871 16.327 14.2302 16.6236 14.1348C16.9201 14.0393 17.2335 14.0074 17.5432 14.0411C18.0986 14.1111 18.6091 14.3823 18.9777 14.8035C19.3464 15.2247 19.5476 15.7665 19.5432 16.3261V22.9642C19.5432 23.2369 19.6516 23.4984 19.8445 23.6913C20.0373 23.8841 20.299 23.9924 20.5718 23.9924H22.9718C23.2446 23.9924 23.5062 23.8841 23.6991 23.6913C23.892 23.4984 24.0003 23.2369 24.0003 22.9642V16.2462C23.9988 15.3705 23.8246 14.5037 23.4877 13.6954C23.1508 12.8871 22.6577 12.1531 22.0367 11.5355C21.4157 10.9179 20.679 10.4288 19.8688 10.0961C19.0585 9.76341 18.1906 9.59371 17.3146 9.59672Z" fill="white"/>
<path d="M7.54202 10.625H4.45631C3.88824 10.625 3.42773 11.0854 3.42773 11.6533V22.9642C3.42773 23.5321 3.88824 23.9925 4.45631 23.9925H7.54202C8.11008 23.9925 8.57059 23.5321 8.57059 22.9642V11.6533C8.57059 11.0854 8.11008 10.625 7.54202 10.625Z" fill="white"/>
<path d="M5.99916 8.56906C7.41932 8.56906 8.57059 7.41814 8.57059 5.9984C8.57059 4.57866 7.41932 3.42773 5.99916 3.42773C4.579 3.42773 3.42773 4.57866 3.42773 5.9984C3.42773 7.41814 4.579 8.56906 5.99916 8.56906Z" fill="white"/>
</g>
<defs>
<clipPath id="clip0_1_226">
<rect width="27.4286" height="27.4204" fill="white"/>
</clipPath>
</defs>
</svg>
