<svg width="230" height="33" viewBox="0 0 230 33" fill="none" xmlns="http://www.w3.org/2000/svg">
<g clip-path="url(#clip0_1_99)">
<path d="M130.221 23.9405V7.21161H137.291C140.167 7.21161 142.096 9.20665 142.096 12.1763C142.096 15.146 140.209 17.1116 137.291 17.1116H132.227V23.9438H130.221V23.9405ZM132.227 15.3815H137.036C138.966 15.3815 140.119 14.1812 140.119 12.1731C140.119 10.1649 138.966 8.93847 137.036 8.93847H132.227V15.3815Z" fill="white"/>
<path d="M143.955 23.9406V11.2802H145.768L145.836 13.9784L146.09 13.5009C146.664 12.4216 147.685 11.1363 149.302 11.1363C149.862 11.1363 150.31 11.2311 150.574 11.3031V13.3112C150.236 13.1739 149.862 13.0594 149.273 13.0594C147.466 13.0594 145.878 15.2081 145.878 17.6545V23.9438H143.955V23.9406Z" fill="white"/>
<path d="M157.177 24.2578C153.57 24.2578 151.238 21.6544 151.238 17.6251C151.238 13.5958 153.57 10.963 157.177 10.963C160.785 10.963 163.116 13.5761 163.116 17.6251C163.116 21.6741 160.785 24.2578 157.177 24.2578ZM157.206 12.6277C154.71 12.6277 153.16 14.5409 153.16 17.6251C153.16 20.7092 154.748 22.6225 157.206 22.6225C159.664 22.6225 161.223 20.6602 161.223 17.6251C161.223 14.59 159.648 12.6277 157.206 12.6277Z" fill="white"/>
<path d="M166.357 23.9405V12.801H163.896V11.2802H166.357V9.38327C166.357 6.37435 168.534 5.30487 170.399 5.30487C171.488 5.30487 172.097 5.54362 172.802 5.88376V7.52558C172.419 7.28029 171.62 6.85512 170.654 6.85512C169.082 6.85512 168.251 7.77742 168.251 9.52717V11.2802H171.417V12.801H168.251V23.9438H166.357V23.9405Z" fill="white"/>
<path d="M178.129 24.2578C174.535 24.2578 172.303 21.7166 172.303 17.6251C172.303 13.5336 174.577 10.963 178.1 10.963C181.347 10.963 183.444 13.2393 183.444 16.7617C183.444 17.0331 183.422 17.4321 183.399 17.7363H174.197V18.0241C174.197 21.2391 176.158 22.6781 178.1 22.6781C180.043 22.6781 181.228 21.7493 181.502 20.1238H183.425C183.083 22.6421 181.022 24.2578 178.126 24.2578H178.129ZM178.017 12.5132C176.113 12.5132 174.603 13.9457 174.258 16.0781L174.232 16.2449H181.56V16.0977C181.499 13.8868 180.143 12.5132 178.02 12.5132H178.017Z" fill="white"/>
<path d="M190.382 24.2578C187.348 24.2578 185.28 22.5637 185.077 19.9243H186.945C187.145 21.6773 188.42 22.6814 190.469 22.6814C192.302 22.6814 193.439 21.8441 193.439 20.4999C193.439 19.0544 191.947 18.76 190.749 18.5213L189.248 18.2334C186.794 17.7494 185.602 16.6407 185.602 14.8419C185.602 12.4511 187.335 10.9662 190.128 10.9662C192.92 10.9662 194.611 12.4347 194.811 14.8124H192.972C192.804 13.3701 191.764 12.5427 190.099 12.5427C188.433 12.5427 187.441 13.3963 187.441 14.6685C187.441 15.9408 188.672 16.3005 189.931 16.5622L191.516 16.8794C194.186 17.4223 195.275 18.4035 195.275 20.271C195.275 22.6945 193.355 24.2611 190.382 24.2611V24.2578Z" fill="white"/>
<path d="M202.042 24.2578C199.008 24.2578 196.94 22.5637 196.737 19.9243H198.605C198.805 21.6773 200.08 22.6814 202.129 22.6814C203.962 22.6814 205.099 21.8441 205.099 20.4999C205.099 19.0544 203.607 18.76 202.409 18.5213L200.908 18.2334C198.454 17.7494 197.262 16.6407 197.262 14.8419C197.262 12.4511 198.995 10.9662 201.788 10.9662C204.58 10.9662 206.271 12.4347 206.471 14.8124H204.632C204.464 13.3701 203.424 12.5427 201.759 12.5427C200.093 12.5427 199.101 13.3963 199.101 14.6685C199.101 15.9408 200.332 16.3005 201.591 16.5622L203.176 16.8794C205.846 17.4223 206.935 18.4035 206.935 20.271C206.935 22.6945 205.015 24.2611 202.042 24.2611V24.2578Z" fill="white"/>
<path d="M214.607 24.2578C210.999 24.2578 208.667 21.6544 208.667 17.6251C208.667 13.5958 210.999 10.963 214.607 10.963C218.214 10.963 220.546 13.5761 220.546 17.6251C220.546 21.6741 218.214 24.2578 214.607 24.2578ZM214.636 12.6277C212.14 12.6277 210.59 14.5409 210.59 17.6251C210.59 20.7092 212.178 22.6225 214.636 22.6225C217.094 22.6225 218.652 20.6602 218.652 17.6251C218.652 14.59 217.077 12.6277 214.636 12.6277Z" fill="white"/>
<path d="M223.384 23.9406V11.2802H225.198L225.265 13.9784L225.52 13.5009C226.093 12.4216 227.114 11.1363 228.731 11.1363C229.291 11.1363 229.739 11.2311 230.003 11.3031V13.3112C229.655 13.1706 229.295 13.0594 228.702 13.0594C226.895 13.0594 225.307 15.2081 225.307 17.6545V23.9438H223.384V23.9406Z" fill="white"/>
<path d="M61.4401 19.8196H61.3756L57.4396 7.25086L57.4235 7.21161H53.4585L59.1306 23.8882L59.1435 23.9275H63.6819L69.3282 7.2901L69.3572 7.21161H65.3986L61.4401 19.8196Z" fill="white"/>
<path d="M72.881 6.26312C72.3689 6.26312 71.9179 6.443 71.5475 6.79295C71.1739 7.14618 70.9871 7.57462 70.9871 8.0652C70.9871 8.55579 71.1771 8.99077 71.5475 9.34399C71.9179 9.69722 72.3689 9.87383 72.8874 9.87383C73.406 9.87383 73.8569 9.69394 74.2241 9.34399C74.5946 8.99077 74.7814 8.55906 74.7814 8.0652C74.7814 7.57135 74.5946 7.14618 74.2241 6.79295C73.8537 6.43973 73.4028 6.26312 72.8778 6.26312H72.881Z" fill="white"/>
<path d="M74.63 11.3586H71.1127V23.9274H74.63V11.3586Z" fill="white"/>
<path d="M84.2124 11.2148C84.0062 11.1919 83.8258 11.1821 83.6551 11.1821C82.9594 11.1821 82.3345 11.3881 81.7999 11.7904C81.2748 12.1861 80.8948 12.7716 80.6661 13.5336H80.6403V11.3619H77.2261V23.9307H80.7434V16.8271C80.7434 16.3332 80.8561 15.8884 81.0751 15.5123C81.2942 15.1329 81.5969 14.8353 81.977 14.6227C82.3571 14.4101 82.7984 14.3022 83.2847 14.3022C83.5134 14.3022 83.7711 14.3218 84.0513 14.3578C84.3283 14.3938 84.5506 14.4396 84.7052 14.4853L84.7825 14.5082V11.3162L84.7374 11.3063C84.5892 11.2671 84.4121 11.2377 84.2091 11.2148H84.2124Z" fill="white"/>
<path d="M93.3438 21.0755L92.9186 21.154C92.5386 21.2259 92.1488 21.2096 91.8686 21.0951C91.7108 21.0297 91.5852 20.9152 91.495 20.7517C91.4048 20.5849 91.3597 20.3462 91.3597 20.0387V14.0699H93.6659V11.3554H91.3597V8.37262H87.8424V11.3554H86.1675V14.0699H87.8424V20.4933C87.8359 21.3175 88.0099 22.0109 88.3545 22.5538C88.6992 23.0967 89.192 23.5023 89.8136 23.7606C90.3644 23.9896 91.0022 24.104 91.7172 24.104C91.8074 24.104 91.8976 24.104 91.991 24.0975C92.4355 24.0811 92.8156 24.0354 93.128 23.9634C93.4437 23.8882 93.6788 23.826 93.8495 23.7704L93.901 23.7541L93.3535 21.1311L93.3406 21.0722L93.3438 21.0755Z" fill="white"/>
<path d="M103.622 18.567C103.628 19.1099 103.522 19.571 103.306 19.9373C103.09 20.3036 102.807 20.5849 102.462 20.7713C102.114 20.9577 101.738 21.0526 101.341 21.0526C100.717 21.0526 100.214 20.8433 99.8437 20.4312C99.4733 20.0191 99.28 19.4435 99.2768 18.7305V11.3619H95.7595V19.3486C95.766 20.3265 95.9463 21.1769 96.2974 21.88C96.6485 22.5832 97.1478 23.1359 97.7759 23.5186C98.4039 23.9013 99.1415 24.0942 99.9693 24.0942C100.897 24.0942 101.696 23.8686 102.346 23.4205C102.984 22.979 103.448 22.3903 103.731 21.6707H103.76V23.9307H107.142V11.3586H103.625V18.567H103.622Z" fill="white"/>
<path d="M118.651 12.2058C118.161 11.8623 117.595 11.6072 116.963 11.4437C116.335 11.2802 115.672 11.1984 114.989 11.1984C114.006 11.1984 113.13 11.3521 112.386 11.653C111.639 11.9539 111.021 12.3922 110.547 12.9514C110.074 13.5107 109.755 14.1812 109.594 14.9432L109.581 15.0119L112.792 15.2768H112.84L112.853 15.2343C112.966 14.8386 113.201 14.505 113.549 14.2401C113.9 13.9751 114.38 13.841 114.976 13.841C115.54 13.841 115.978 13.9784 116.28 14.2466C116.583 14.5148 116.735 14.9007 116.735 15.3946V15.4436C116.735 15.6889 116.648 15.8688 116.464 15.9931C116.274 16.1239 115.965 16.222 115.54 16.2874C115.108 16.3561 114.544 16.4248 113.82 16.5033C113.214 16.5622 112.625 16.6668 112.074 16.814C111.52 16.9612 111.017 17.1803 110.582 17.4714C110.144 17.7624 109.793 18.1516 109.542 18.6291C109.288 19.1067 109.159 19.7019 109.159 20.4018C109.159 21.2325 109.339 21.9324 109.7 22.4884C110.057 23.0444 110.553 23.4696 111.175 23.7509C111.794 24.0321 112.505 24.1728 113.291 24.1728C113.9 24.1728 114.448 24.0877 114.915 23.9209C115.382 23.7541 115.788 23.5186 116.123 23.221C116.448 22.9332 116.712 22.5931 116.908 22.2104V23.9373H120.252V15.4829C120.252 14.7372 120.107 14.0863 119.82 13.5467C119.534 13.0103 119.141 12.5623 118.648 12.2188L118.651 12.2058ZM116.76 18.2007V19.4174C116.76 19.8425 116.654 20.2252 116.441 20.5588C116.229 20.8957 115.933 21.1638 115.562 21.3601C115.188 21.5563 114.754 21.6577 114.264 21.6577C113.774 21.6577 113.336 21.5367 113.011 21.3012C112.686 21.0657 112.528 20.7289 112.528 20.2775C112.528 19.9668 112.608 19.7052 112.763 19.4991C112.921 19.2898 113.146 19.1197 113.433 18.9955C113.726 18.8679 114.071 18.7731 114.464 18.7175C114.651 18.6913 114.857 18.6586 115.085 18.6259C115.317 18.5899 115.549 18.5474 115.775 18.5049C116.003 18.4591 116.213 18.4067 116.4 18.3479C116.541 18.3054 116.66 18.2563 116.757 18.204L116.76 18.2007Z" fill="white"/>
<path d="M126.291 7.21161H122.774V23.9275H126.291V7.21161Z" fill="white"/>
<path d="M38.1363 17.3569L41.66 15.4501V22.472L23.1845 32.8201L22.2504 32.3034L4.69934 22.472V15.4501L8.22631 17.3634V20.3625L23.1781 28.7352L38.1363 20.3625V17.3569Z" fill="white"/>
<path d="M45.5092 10.2696L43.5798 11.3162L41.6601 12.3529L38.1364 14.2662L23.1782 22.3641L8.22642 14.2662L4.69945 12.3595L2.77653 11.3162L0.847168 10.2696L23.1782 0L45.5092 10.2696Z" fill="white"/>
<path d="M2.91176 29.4351V14.7502L0.89543 13.7396V29.4351C0.357528 29.7785 0 30.3803 0 31.0703C0 32.1366 0.853558 33.0033 1.90359 33.0033C2.95363 33.0033 3.80719 32.1366 3.80719 31.0703C3.80719 30.3803 3.44644 29.7785 2.91176 29.4351Z" fill="white"/>
</g>
<defs>
<clipPath id="clip0_1_99">
<rect width="230" height="33" fill="white"/>
</clipPath>
</defs>
</svg>
