<svg width="29" height="28" viewBox="0 0 29 28" fill="none" xmlns="http://www.w3.org/2000/svg">
<path d="M25.6355 7.54246C25.7018 7.45018 25.604 7.33103 25.498 7.37208C24.7452 7.6638 23.9584 7.86062 23.1558 7.95761C24.0494 7.42392 24.739 6.61149 25.1214 5.64964C25.1603 5.55166 25.0533 5.46417 24.961 5.51513C24.1305 5.97367 23.2347 6.30385 22.3043 6.49401C22.2653 6.50197 22.2252 6.48872 22.1979 6.45987C21.4996 5.72332 20.5804 5.23291 19.5785 5.06344C18.5554 4.89042 17.5038 5.06174 16.5888 5.55054C15.6736 6.03934 14.9466 6.81798 14.5218 7.76434C14.1179 8.66414 14.009 9.66717 14.2082 10.6304C14.2236 10.7052 14.1651 10.7758 14.0889 10.771C12.2786 10.6586 10.5097 10.1772 8.89145 9.35589C7.27727 8.53662 5.84786 7.39689 4.69029 6.00699C4.63892 5.9453 4.54155 5.95328 4.50411 6.0243C4.14393 6.70759 3.95533 7.46919 3.95585 8.24324C3.95439 9.01373 4.14352 9.77264 4.50642 10.4524C4.86932 11.1321 5.39473 11.7116 6.03585 12.1392C5.35593 12.1207 4.68928 11.9527 4.08299 11.648C4.00485 11.6088 3.91113 11.6647 3.9152 11.752C3.96248 12.768 4.33556 13.7879 4.98135 14.5705C5.66857 15.4032 6.62242 15.9731 7.68156 16.1837C7.27385 16.3078 6.85056 16.3732 6.42442 16.378C6.19249 16.3752 5.961 16.3582 5.73131 16.3268C5.64615 16.3151 5.57661 16.396 5.60642 16.4766C5.92233 17.3306 6.48041 18.0759 7.21421 18.6198C7.99873 19.2014 8.94507 19.524 9.92156 19.5427C8.27265 20.8398 6.23685 21.5477 4.13871 21.5536C3.92311 21.5543 3.70761 21.5473 3.49263 21.5327C3.37147 21.5244 3.31576 21.6858 3.42018 21.7477C5.46449 22.9606 7.80109 23.6015 10.1844 23.5987C11.9441 23.617 13.6897 23.2845 15.3194 22.6208C16.9491 21.957 18.4301 20.9753 19.6761 19.733C20.922 18.4906 21.9078 17.0125 22.576 15.385C23.244 13.7575 23.581 12.0132 23.5673 10.2541V9.70586C23.5673 9.66979 23.5843 9.63586 23.6131 9.61412C24.3883 9.02899 25.07 8.33042 25.6355 7.54246Z" fill="white"/>
</svg>
