<svg width="29" height="28" viewBox="0 0 29 28" fill="none" xmlns="http://www.w3.org/2000/svg">
<path fill-rule="evenodd" clip-rule="evenodd" d="M8.84206 6.01561C12.6543 5.71745 16.4839 5.71745 20.2961 6.01561L22.8569 6.2159C24.2833 6.32745 25.4502 7.39616 25.686 8.80691C26.2759 12.3367 26.2759 15.94 25.686 19.4698C25.4502 20.8804 24.2833 21.9491 22.8569 22.0608L20.2961 22.2611C16.4839 22.5591 12.6543 22.5591 8.84206 22.2611L6.28126 22.0608C4.85489 21.9491 3.68801 20.8804 3.45223 19.4698C2.86228 15.94 2.86228 12.3367 3.45223 8.80691C3.68801 7.39616 4.85489 6.32745 6.28126 6.2159L8.84206 6.01561ZM12.2833 16.9605V11.3161C12.2833 11.0497 12.5741 10.8852 12.8025 11.0222L17.5077 13.8445C17.7296 13.9776 17.7296 14.2991 17.5077 14.4322L12.8025 17.2544C12.5741 17.3915 12.2833 17.2269 12.2833 16.9605Z" fill="white"/>
</svg>
